<mxfile host="app.diagrams.net" agent="Mozilla/5.0 (Windows NT 10.0; Win64; x64) AppleWebKit/537.36 (KHTML, like Gecko) Chrome/130.0.0.0 Safari/537.36" version="24.7.16">
  <diagram name="Pàgina-1" id="B-72LhJ2oT6FKTb8jsRB">
    <mxGraphModel grid="1" page="0" gridSize="10" guides="1" tooltips="1" connect="1" arrows="1" fold="1" pageScale="1" pageWidth="827" pageHeight="1169" math="0" shadow="0">
      <root>
        <mxCell id="0" />
        <mxCell id="1" parent="0" />
        <mxCell id="cTZgTY2YLup1WV-kBdKi-2" value="START" style="strokeWidth=2;html=1;shape=mxgraph.flowchart.start_2;whiteSpace=wrap;" vertex="1" parent="1">
          <mxGeometry x="350" y="110" width="100" height="100" as="geometry" />
        </mxCell>
        <mxCell id="cTZgTY2YLup1WV-kBdKi-4" value="" style="endArrow=classic;html=1;rounded=0;exitX=0.5;exitY=1;exitDx=0;exitDy=0;exitPerimeter=0;" edge="1" parent="1" source="cTZgTY2YLup1WV-kBdKi-2">
          <mxGeometry width="50" height="50" relative="1" as="geometry">
            <mxPoint x="420" y="320" as="sourcePoint" />
            <mxPoint x="400" y="280" as="targetPoint" />
          </mxGeometry>
        </mxCell>
        <mxCell id="cTZgTY2YLup1WV-kBdKi-5" value="characterNum" style="shape=parallelogram;html=1;strokeWidth=2;perimeter=parallelogramPerimeter;whiteSpace=wrap;rounded=1;arcSize=12;size=0.23;" vertex="1" parent="1">
          <mxGeometry x="350" y="280" width="100" height="60" as="geometry" />
        </mxCell>
        <mxCell id="cTZgTY2YLup1WV-kBdKi-6" value="characterNum &amp;gt;= 1&amp;amp;&amp;amp;characterNum&amp;lt;=4" style="strokeWidth=2;html=1;shape=mxgraph.flowchart.decision;whiteSpace=wrap;" vertex="1" parent="1">
          <mxGeometry x="320" y="400" width="160" height="160" as="geometry" />
        </mxCell>
        <mxCell id="cTZgTY2YLup1WV-kBdKi-8" value="" style="endArrow=classic;html=1;rounded=0;exitX=0.5;exitY=1;exitDx=0;exitDy=0;entryX=0.5;entryY=0;entryDx=0;entryDy=0;entryPerimeter=0;" edge="1" parent="1" source="cTZgTY2YLup1WV-kBdKi-5" target="cTZgTY2YLup1WV-kBdKi-6">
          <mxGeometry width="50" height="50" relative="1" as="geometry">
            <mxPoint x="300" y="360" as="sourcePoint" />
            <mxPoint x="350" y="310" as="targetPoint" />
          </mxGeometry>
        </mxCell>
        <mxCell id="cTZgTY2YLup1WV-kBdKi-10" value="" style="endArrow=classic;html=1;rounded=0;exitX=0.25;exitY=1;exitDx=0;exitDy=0;" edge="1" parent="1" source="cTZgTY2YLup1WV-kBdKi-11">
          <mxGeometry width="50" height="50" relative="1" as="geometry">
            <mxPoint x="486" y="480" as="sourcePoint" />
            <mxPoint x="400" y="240" as="targetPoint" />
            <Array as="points">
              <mxPoint x="600" y="480" />
              <mxPoint x="600" y="240" />
            </Array>
          </mxGeometry>
        </mxCell>
        <mxCell id="cTZgTY2YLup1WV-kBdKi-11" value="No" style="text;html=1;align=center;verticalAlign=middle;whiteSpace=wrap;rounded=0;" vertex="1" parent="1">
          <mxGeometry x="460" y="450" width="60" height="30" as="geometry" />
        </mxCell>
        <mxCell id="cTZgTY2YLup1WV-kBdKi-12" value="" style="endArrow=classic;html=1;rounded=0;exitX=0.5;exitY=1;exitDx=0;exitDy=0;exitPerimeter=0;entryX=0.5;entryY=0;entryDx=0;entryDy=0;" edge="1" parent="1" source="cTZgTY2YLup1WV-kBdKi-6" target="cTZgTY2YLup1WV-kBdKi-16">
          <mxGeometry width="50" height="50" relative="1" as="geometry">
            <mxPoint x="590" y="650" as="sourcePoint" />
            <mxPoint x="400" y="640" as="targetPoint" />
          </mxGeometry>
        </mxCell>
        <mxCell id="cTZgTY2YLup1WV-kBdKi-15" value="Si" style="text;html=1;align=center;verticalAlign=middle;whiteSpace=wrap;rounded=0;" vertex="1" parent="1">
          <mxGeometry x="384" y="550" width="60" height="30" as="geometry" />
        </mxCell>
        <mxCell id="cTZgTY2YLup1WV-kBdKi-16" value="nomUser" style="shape=parallelogram;html=1;strokeWidth=2;perimeter=parallelogramPerimeter;whiteSpace=wrap;rounded=1;arcSize=12;size=0.23;" vertex="1" parent="1">
          <mxGeometry x="350" y="670" width="100" height="60" as="geometry" />
        </mxCell>
        <mxCell id="cTZgTY2YLup1WV-kBdKi-17" value="" style="endArrow=classic;html=1;rounded=0;exitX=0.5;exitY=1;exitDx=0;exitDy=0;" edge="1" parent="1" source="cTZgTY2YLup1WV-kBdKi-16">
          <mxGeometry width="50" height="50" relative="1" as="geometry">
            <mxPoint x="270" y="810" as="sourcePoint" />
            <mxPoint x="400" y="800" as="targetPoint" />
          </mxGeometry>
        </mxCell>
        <mxCell id="cTZgTY2YLup1WV-kBdKi-18" value="maldat" style="shape=parallelogram;html=1;strokeWidth=2;perimeter=parallelogramPerimeter;whiteSpace=wrap;rounded=1;arcSize=12;size=0.23;" vertex="1" parent="1">
          <mxGeometry x="350" y="1040" width="100" height="60" as="geometry" />
        </mxCell>
        <mxCell id="cTZgTY2YLup1WV-kBdKi-19" value="maldat &amp;gt;= 1000&amp;amp;&amp;amp;maldat&amp;lt;=50000" style="strokeWidth=2;html=1;shape=mxgraph.flowchart.decision;whiteSpace=wrap;" vertex="1" parent="1">
          <mxGeometry x="320" y="1160" width="160" height="160" as="geometry" />
        </mxCell>
        <mxCell id="cTZgTY2YLup1WV-kBdKi-20" value="" style="endArrow=classic;html=1;rounded=0;exitX=0.5;exitY=1;exitDx=0;exitDy=0;entryX=0.5;entryY=0;entryDx=0;entryDy=0;entryPerimeter=0;" edge="1" parent="1" target="cTZgTY2YLup1WV-kBdKi-19">
          <mxGeometry width="50" height="50" relative="1" as="geometry">
            <mxPoint x="400" y="1100" as="sourcePoint" />
            <mxPoint x="200" y="1040" as="targetPoint" />
          </mxGeometry>
        </mxCell>
        <mxCell id="cTZgTY2YLup1WV-kBdKi-21" value="" style="endArrow=classic;html=1;rounded=0;exitX=1;exitY=0.5;exitDx=0;exitDy=0;exitPerimeter=0;" edge="1" parent="1" source="cTZgTY2YLup1WV-kBdKi-19">
          <mxGeometry width="50" height="50" relative="1" as="geometry">
            <mxPoint x="570" y="1010" as="sourcePoint" />
            <mxPoint x="400" y="1000" as="targetPoint" />
            <Array as="points">
              <mxPoint x="600" y="1240" />
              <mxPoint x="600" y="1000" />
            </Array>
          </mxGeometry>
        </mxCell>
        <mxCell id="cTZgTY2YLup1WV-kBdKi-22" value="No" style="text;html=1;align=center;verticalAlign=middle;whiteSpace=wrap;rounded=0;" vertex="1" parent="1">
          <mxGeometry x="470" y="1210" width="60" height="30" as="geometry" />
        </mxCell>
        <mxCell id="cTZgTY2YLup1WV-kBdKi-23" value="" style="endArrow=classic;html=1;rounded=0;exitX=0.5;exitY=1;exitDx=0;exitDy=0;exitPerimeter=0;" edge="1" parent="1" source="cTZgTY2YLup1WV-kBdKi-19">
          <mxGeometry width="50" height="50" relative="1" as="geometry">
            <mxPoint x="420" y="1450" as="sourcePoint" />
            <mxPoint x="400" y="1410" as="targetPoint" />
          </mxGeometry>
        </mxCell>
        <mxCell id="cTZgTY2YLup1WV-kBdKi-24" value="Si" style="text;html=1;align=center;verticalAlign=middle;whiteSpace=wrap;rounded=0;" vertex="1" parent="1">
          <mxGeometry x="384" y="1320" width="60" height="30" as="geometry" />
        </mxCell>
        <mxCell id="cTZgTY2YLup1WV-kBdKi-25" value="nomUser conte 2 o més vocals" style="rhombus;whiteSpace=wrap;html=1;" vertex="1" parent="1">
          <mxGeometry x="340" y="1409" width="120" height="121" as="geometry" />
        </mxCell>
        <mxCell id="cTZgTY2YLup1WV-kBdKi-26" value="" style="endArrow=classic;html=1;rounded=0;exitX=1;exitY=0.5;exitDx=0;exitDy=0;" edge="1" parent="1" source="cTZgTY2YLup1WV-kBdKi-25">
          <mxGeometry width="50" height="50" relative="1" as="geometry">
            <mxPoint x="520" y="1480" as="sourcePoint" />
            <mxPoint x="520" y="1580" as="targetPoint" />
            <Array as="points">
              <mxPoint x="520" y="1470" />
            </Array>
          </mxGeometry>
        </mxCell>
        <mxCell id="cTZgTY2YLup1WV-kBdKi-28" value="No" style="text;html=1;align=center;verticalAlign=middle;whiteSpace=wrap;rounded=0;" vertex="1" parent="1">
          <mxGeometry x="450" y="1440" width="60" height="30" as="geometry" />
        </mxCell>
        <mxCell id="cTZgTY2YLup1WV-kBdKi-29" value="" style="endArrow=classic;html=1;rounded=0;exitX=0.5;exitY=1;exitDx=0;exitDy=0;" edge="1" parent="1" source="cTZgTY2YLup1WV-kBdKi-25">
          <mxGeometry width="50" height="50" relative="1" as="geometry">
            <mxPoint x="290" y="1640" as="sourcePoint" />
            <mxPoint x="400" y="1660" as="targetPoint" />
          </mxGeometry>
        </mxCell>
        <mxCell id="6XG1ayxtWqeI0iMyr4iQ-1" value="DividirMaldat()" style="rounded=1;whiteSpace=wrap;html=1;" vertex="1" parent="1">
          <mxGeometry x="440" y="1580" width="160" height="60" as="geometry" />
        </mxCell>
        <mxCell id="6XG1ayxtWqeI0iMyr4iQ-2" value="ConvertirAPolsMagic()" style="rounded=1;whiteSpace=wrap;html=1;" vertex="1" parent="1">
          <mxGeometry x="320" y="1660" width="160" height="60" as="geometry" />
        </mxCell>
        <mxCell id="6XG1ayxtWqeI0iMyr4iQ-3" value="Si" style="text;html=1;align=center;verticalAlign=middle;whiteSpace=wrap;rounded=0;" vertex="1" parent="1">
          <mxGeometry x="384" y="1530" width="60" height="30" as="geometry" />
        </mxCell>
        <mxCell id="6XG1ayxtWqeI0iMyr4iQ-4" value="maldat" style="strokeWidth=2;html=1;shape=mxgraph.flowchart.display;whiteSpace=wrap;" vertex="1" parent="1">
          <mxGeometry x="350" y="1820" width="100" height="60" as="geometry" />
        </mxCell>
        <mxCell id="6XG1ayxtWqeI0iMyr4iQ-5" value="END" style="strokeWidth=2;html=1;shape=mxgraph.flowchart.start_2;whiteSpace=wrap;" vertex="1" parent="1">
          <mxGeometry x="350" y="1940" width="100" height="60" as="geometry" />
        </mxCell>
        <mxCell id="6XG1ayxtWqeI0iMyr4iQ-6" style="edgeStyle=none;curved=1;rounded=0;orthogonalLoop=1;jettySize=auto;html=1;exitX=0.5;exitY=1;exitDx=0;exitDy=0;exitPerimeter=0;entryX=0.5;entryY=0;entryDx=0;entryDy=0;entryPerimeter=0;fontSize=12;startSize=8;endSize=8;" edge="1" parent="1" source="6XG1ayxtWqeI0iMyr4iQ-4" target="6XG1ayxtWqeI0iMyr4iQ-5">
          <mxGeometry relative="1" as="geometry" />
        </mxCell>
        <mxCell id="6XG1ayxtWqeI0iMyr4iQ-8" value="" style="endArrow=classic;html=1;rounded=0;fontSize=12;startSize=8;endSize=8;curved=1;entryX=0.5;entryY=0;entryDx=0;entryDy=0;entryPerimeter=0;exitX=0.5;exitY=1;exitDx=0;exitDy=0;" edge="1" parent="1" source="6XG1ayxtWqeI0iMyr4iQ-2" target="6XG1ayxtWqeI0iMyr4iQ-4">
          <mxGeometry width="50" height="50" relative="1" as="geometry">
            <mxPoint x="290" y="1790" as="sourcePoint" />
            <mxPoint x="340" y="1740" as="targetPoint" />
          </mxGeometry>
        </mxCell>
        <mxCell id="6XG1ayxtWqeI0iMyr4iQ-9" value="" style="endArrow=classic;html=1;rounded=0;fontSize=12;startSize=8;endSize=8;curved=1;" edge="1" parent="1">
          <mxGeometry width="50" height="50" relative="1" as="geometry">
            <mxPoint x="520" y="1760" as="sourcePoint" />
            <mxPoint x="400" y="1760" as="targetPoint" />
          </mxGeometry>
        </mxCell>
        <mxCell id="6XG1ayxtWqeI0iMyr4iQ-10" value="" style="endArrow=none;html=1;rounded=0;fontSize=12;startSize=8;endSize=8;curved=1;entryX=0.5;entryY=1;entryDx=0;entryDy=0;" edge="1" parent="1" target="6XG1ayxtWqeI0iMyr4iQ-1">
          <mxGeometry width="50" height="50" relative="1" as="geometry">
            <mxPoint x="520" y="1760" as="sourcePoint" />
            <mxPoint x="340" y="1740" as="targetPoint" />
          </mxGeometry>
        </mxCell>
        <mxCell id="6XG1ayxtWqeI0iMyr4iQ-11" value="nomUser.Length &amp;gt;= 2 &amp;amp;&amp;amp; nomUser.Length &amp;lt;= 25" style="strokeWidth=2;html=1;shape=mxgraph.flowchart.decision;whiteSpace=wrap;" vertex="1" parent="1">
          <mxGeometry x="320" y="800" width="160" height="160" as="geometry" />
        </mxCell>
        <mxCell id="6XG1ayxtWqeI0iMyr4iQ-12" value="" style="endArrow=classic;html=1;rounded=0;fontSize=12;startSize=8;endSize=8;curved=1;exitX=0.5;exitY=1;exitDx=0;exitDy=0;exitPerimeter=0;entryX=0.5;entryY=0;entryDx=0;entryDy=0;" edge="1" parent="1" source="6XG1ayxtWqeI0iMyr4iQ-11" target="cTZgTY2YLup1WV-kBdKi-18">
          <mxGeometry width="50" height="50" relative="1" as="geometry">
            <mxPoint x="390" y="950" as="sourcePoint" />
            <mxPoint x="440" y="900" as="targetPoint" />
          </mxGeometry>
        </mxCell>
        <mxCell id="6XG1ayxtWqeI0iMyr4iQ-13" value="Si" style="text;html=1;align=center;verticalAlign=middle;whiteSpace=wrap;rounded=0;" vertex="1" parent="1">
          <mxGeometry x="384" y="960" width="60" height="30" as="geometry" />
        </mxCell>
        <mxCell id="6XG1ayxtWqeI0iMyr4iQ-14" value="" style="endArrow=classic;html=1;rounded=0;exitX=1;exitY=0.5;exitDx=0;exitDy=0;exitPerimeter=0;" edge="1" parent="1">
          <mxGeometry width="50" height="50" relative="1" as="geometry">
            <mxPoint x="480" y="880" as="sourcePoint" />
            <mxPoint x="400" y="600" as="targetPoint" />
            <Array as="points">
              <mxPoint x="600" y="880" />
              <mxPoint x="600" y="600" />
            </Array>
          </mxGeometry>
        </mxCell>
        <mxCell id="6XG1ayxtWqeI0iMyr4iQ-15" value="No" style="text;html=1;align=center;verticalAlign=middle;whiteSpace=wrap;rounded=0;" vertex="1" parent="1">
          <mxGeometry x="480" y="850" width="60" height="30" as="geometry" />
        </mxCell>
      </root>
    </mxGraphModel>
  </diagram>
</mxfile>
